<?xml version="1.0" encoding="utf-8"?>
<!-- Generator: Adobe Illustrator 15.0.0, SVG Export Plug-In  -->
<!DOCTYPE svg PUBLIC "-//W3C//DTD SVG 1.1//EN" "http://www.w3.org/Graphics/SVG/1.1/DTD/svg11.dtd" [
	<!ENTITY ns_flows "http://ns.adobe.com/Flows/1.0/">
]>
<svg version="1.1"
	 xmlns="http://www.w3.org/2000/svg" xmlns:xlink="http://www.w3.org/1999/xlink" xmlns:a="http://ns.adobe.com/AdobeSVGViewerExtensions/3.0/"
	 x="0px" y="0px" width="402px" height="120px" viewBox="-3.666 115.681 402 120"
	 overflow="visible" enable-background="new -3.666 115.681 402 120" xml:space="preserve">
<defs>
</defs>
<g>
	<defs>
		<rect id="clip_1_" width="64.479" height="126.348"/>
	</defs>
	<clipPath id="clip_2_">
		<use xlink:href="#clip_1_"  overflow="visible"/>
	</clipPath>
	<linearGradient id="SVGID_1_" gradientUnits="userSpaceOnUse" x1="14.0342" y1="122.1064" x2="43.0459" y2="228.4814">
		<stop  offset="0.0112" style="stop-color:#48ADA6"/>
		<stop  offset="0.2548" style="stop-color:#48ABA6"/>
		<stop  offset="0.4059" style="stop-color:#45A7A7"/>
		<stop  offset="0.5318" style="stop-color:#409FA8"/>
		<stop  offset="0.6439" style="stop-color:#3B94A9"/>
		<stop  offset="0.7469" style="stop-color:#3684A9"/>
		<stop  offset="0.8431" style="stop-color:#3471A6"/>
		<stop  offset="0.9323" style="stop-color:#355A9F"/>
		<stop  offset="0.9944" style="stop-color:#374798"/>
	</linearGradient>
	<path clip-path="url(#clip_2_)" fill="url(#SVGID_1_)" d="M35.381,157.123c-3.032-10.904-6.063-21.809-9.094-32.713
		c-1.349-4.851-19.277-1.948-24.12-1.948c6.932,24.166,13.863,48.331,20.795,72.497c3.127,10.904,6.255,21.808,9.383,32.713
		c0.107,0.373,0.317,0.694,0.6,0.979c3.778-13.173,7.557-26.346,11.335-39.519C41.314,178.463,38.348,167.793,35.381,157.123z"/>
</g>
<linearGradient id="SVGID_2_" gradientUnits="userSpaceOnUse" x1="76.2666" y1="122.9912" x2="106.1712" y2="230.4088">
	<stop  offset="0" style="stop-color:#374798"/>
	<stop  offset="0.0818" style="stop-color:#345CA4"/>
	<stop  offset="0.2295" style="stop-color:#327FB6"/>
	<stop  offset="0.3563" style="stop-color:#3698C1"/>
	<stop  offset="0.4557" style="stop-color:#3BA7C7"/>
	<stop  offset="0.5153" style="stop-color:#3DACC9"/>
	<stop  offset="0.5704" style="stop-color:#3BA7C7"/>
	<stop  offset="0.6593" style="stop-color:#3699C2"/>
	<stop  offset="0.7709" style="stop-color:#3282B8"/>
	<stop  offset="0.8995" style="stop-color:#3462A7"/>
	<stop  offset="0.9944" style="stop-color:#374798"/>
</linearGradient>
<path fill="url(#SVGID_2_)" d="M97.381,157.123c-3.032-10.904-6.063-21.809-9.094-32.713c-0.774-2.786-7.016-3.013-13.107-2.703
	c4.408,0.217,8.788,0.755,10.855,0.755c-3.587,12.905-7.175,25.811-10.763,38.716c3.229,11.26,6.459,22.521,9.689,33.781
	c3.127,10.904,6.255,21.808,9.383,32.713c0.207,0.72,0.77,1.265,1.584,1.676c3.645-12.706,7.29-25.412,10.934-38.118
	C103.703,179.861,100.542,168.492,97.381,157.123z"/>
<linearGradient id="SVGID_3_" gradientUnits="userSpaceOnUse" x1="153.1089" y1="122.4307" x2="153.1089" y2="230.4306">
	<stop  offset="0" style="stop-color:#AE3D67"/>
	<stop  offset="0.5031" style="stop-color:#EA5268"/>
	<stop  offset="1" style="stop-color:#AF3C67"/>
</linearGradient>
<path fill="url(#SVGID_3_)" d="M159.426,157.14c-3.031-10.904-6.062-21.809-9.094-32.713c-0.17-0.612-0.606-1.101-1.245-1.487
	c-3.731,13.422-7.462,26.844-11.194,40.266c3.038,10.59,6.075,21.18,9.113,31.771c3.128,10.904,6.256,21.807,9.384,32.713
	c0.107,0.372,0.317,0.693,0.599,0.979c3.778-13.174,7.557-26.347,11.335-39.52C165.358,178.48,162.392,167.81,159.426,157.14z"/>
<linearGradient id="SVGID_4_" gradientUnits="userSpaceOnUse" x1="199.9951" y1="122.0869" x2="229.9951" y2="228.753">
	<stop  offset="0" style="stop-color:#AF3C67"/>
	<stop  offset="0.5031" style="stop-color:#EA5268"/>
	<stop  offset="1" style="stop-color:#AF3C67"/>
</linearGradient>
<path fill="url(#SVGID_4_)" d="M221.426,157.14c-3.031-10.904-6.062-21.809-9.094-32.713c-0.775-2.786-7.016-3.013-13.108-2.703
	c4.408,0.217,8.788,0.755,10.856,0.755c-3.588,12.906-7.176,25.812-10.764,38.718c3.23,11.26,6.46,22.52,9.689,33.78
	c3.129,10.904,6.256,21.807,9.385,32.713c0.207,0.72,0.77,1.265,1.583,1.676c3.645-12.706,7.289-25.412,10.934-38.118
	C227.748,179.879,224.587,168.51,221.426,157.14z"/>
<linearGradient id="SVGID_5_" gradientUnits="userSpaceOnUse" x1="277.5469" y1="122.6982" x2="277.5469" y2="230.2165">
	<stop  offset="0" style="stop-color:#4D244D"/>
	<stop  offset="0.5" style="stop-color:#906E9C"/>
	<stop  offset="1" style="stop-color:#4D244D"/>
</linearGradient>
<path fill="url(#SVGID_5_)" d="M283.997,157.14c-3.031-10.904-6.062-21.809-9.094-32.713c-0.208-0.748-0.812-1.311-1.7-1.729
	c-3.668,13.194-7.336,26.39-11.004,39.584c3.126,10.898,6.252,21.796,9.378,32.695c3.128,10.904,6.256,21.807,9.384,32.713
	c0.106,0.372,0.317,0.693,0.599,0.979c3.779-13.174,7.558-26.347,11.336-39.52C289.93,178.48,286.963,167.81,283.997,157.14z"/>
<linearGradient id="SVGID_6_" gradientUnits="userSpaceOnUse" x1="325.0801" y1="123.252" x2="354.5798" y2="230.251">
	<stop  offset="0" style="stop-color:#4D244D"/>
	<stop  offset="0.5" style="stop-color:#906E9C"/>
	<stop  offset="1" style="stop-color:#4D234D"/>
</linearGradient>
<path fill="url(#SVGID_6_)" d="M345.997,157.14c-3.031-10.904-6.062-21.809-9.094-32.713c-0.775-2.786-7.017-3.013-13.107-2.703
	c4.408,0.217,8.787,0.755,10.855,0.755c-3.588,12.906-7.176,25.812-10.764,38.718c3.229,11.26,6.46,22.52,9.689,33.78
	c3.129,10.904,6.256,21.807,9.385,32.713c0.206,0.72,0.77,1.265,1.584,1.676c3.645-12.706,7.289-25.412,10.934-38.118
	C352.318,179.879,349.158,168.51,345.997,157.14z"/>
<path fill="#FFFFFF" d="M73.518,141.152v12.362H52.631v57.452H37.948v-57.452H16.966v-12.362H73.518L73.518,141.152z"/>
<path fill="#FFFFFF" d="M81.949,210.966v-69.813h14.493v26.618h27.139v-26.618h14.493v69.813h-14.493v-31.165H96.442v31.165H81.949
	L81.949,210.966z"/>
<path fill="#FFFFFF" d="M165.402,210.966H150.91v-69.813h14.492V210.966L165.402,210.966z"/>
<path fill="#FFFFFF" d="M178.807,141.152H194.1l27.713,48.679v-48.679h13.593v69.813H220.82l-28.421-49.535v49.535h-13.593V141.152
	L178.807,141.152z"/>
<path fill="#FFFFFF" d="M296.031,162.939l-8.1-9.994l-8.004-1.563l-13.854,6.358l-5.423,19.121l5.873,18.2l13.356,5.342l12.03-4.212
	l5.778-11.039h-16.151v-11.651h29.082v37.464h-9.662l-1.469-8.715l-7.578,6.979l-14.209,3.536l-22.734-9.609l-9.236-26.412
	l9.331-27.169l24.677-10.224l21.384,6.749l9.26,16.838H296.031L296.031,162.939z"/>
<path fill="#FFFFFF" d="M335.058,189.416l2.66,7.152l12.428,4.31l8.56-1.137l6.238-8.099l-3.056-5.352l-9.692-3.268l-7.559-1.658
	l-15.311-5.352l-7.057-15.109l6.904-15.583l20.281-6.205l19.059,5.849l8.271,16.98h-14.02l-5.633-8.952l-8.691-1.752l-9.227,2.273
	l-3.447,6.347l3.399,5.589l9.275,2.889l12.251,2.889l12.075,5.068l6.242,14.256l-7.396,15.89l-20.896,6.323l-21.687-6.229
	l-7.898-17.122H335.058L335.058,189.416z"/>
<linearGradient id="SVGID_7_" gradientUnits="userSpaceOnUse" x1="80.0386" y1="124.1812" x2="48.9443" y2="231.2999">
	<stop  offset="0.0112" style="stop-color:#3090CF"/>
	<stop  offset="0.0242" style="stop-color:#3192CE"/>
	<stop  offset="0.1673" style="stop-color:#3A9EC0"/>
	<stop  offset="0.2968" style="stop-color:#41A6B2"/>
	<stop  offset="0.4069" style="stop-color:#47ABA9"/>
	<stop  offset="0.4847" style="stop-color:#48ADA6"/>
	<stop  offset="1" style="stop-color:#3090CF"/>
</linearGradient>
<path fill="url(#SVGID_7_)" d="M54.479,229.652c-2.41,0.125-6.393,0.577-10.327,0.747C48.101,230.581,52.053,230.516,54.479,229.652
	z"/>
<linearGradient id="SVGID_8_" gradientUnits="userSpaceOnUse" x1="70.353" y1="121.3696" x2="39.2588" y2="228.4882">
	<stop  offset="0.0112" style="stop-color:#3090CF"/>
	<stop  offset="0.0242" style="stop-color:#3192CE"/>
	<stop  offset="0.1673" style="stop-color:#3A9EC0"/>
	<stop  offset="0.2968" style="stop-color:#41A6B2"/>
	<stop  offset="0.4069" style="stop-color:#47ABA9"/>
	<stop  offset="0.4847" style="stop-color:#48ADA6"/>
	<stop  offset="1" style="stop-color:#3090CF"/>
</linearGradient>
<path fill="url(#SVGID_8_)" d="M65.118,122.435c2.3-0.109,6.147-0.528,10.062-0.728C71.348,121.519,67.495,121.573,65.118,122.435z"
	/>
<linearGradient id="SVGID_9_" gradientUnits="userSpaceOnUse" x1="14.9785" y1="121.8486" x2="43.9902" y2="228.2236">
	<stop  offset="0.0112" style="stop-color:#48ADA6"/>
	<stop  offset="0.2548" style="stop-color:#48ABA6"/>
	<stop  offset="0.4059" style="stop-color:#45A7A7"/>
	<stop  offset="0.5318" style="stop-color:#409FA8"/>
	<stop  offset="0.6439" style="stop-color:#3B94A9"/>
	<stop  offset="0.7469" style="stop-color:#3684A9"/>
	<stop  offset="0.8431" style="stop-color:#3471A6"/>
	<stop  offset="0.9323" style="stop-color:#355A9F"/>
	<stop  offset="0.9944" style="stop-color:#374798"/>
</linearGradient>
<path fill="url(#SVGID_9_)" d="M32.945,228.652c0.448,0.454,1.099,0.805,1.905,1.07c2.427,0.172,5.861,0.518,9.302,0.677
	c3.935-0.17,7.917-0.622,10.327-0.747c0.351-0.125,0.664-0.27,0.946-0.43c-3.715-13.363-7.43-26.726-11.145-40.088
	C40.501,202.307,36.723,215.479,32.945,228.652z"/>
<linearGradient id="SVGID_10_" gradientUnits="userSpaceOnUse" x1="75.3232" y1="123.2539" x2="105.2279" y2="230.6714">
	<stop  offset="0" style="stop-color:#374798"/>
	<stop  offset="0.0818" style="stop-color:#345CA4"/>
	<stop  offset="0.2295" style="stop-color:#327FB6"/>
	<stop  offset="0.3563" style="stop-color:#3698C1"/>
	<stop  offset="0.4557" style="stop-color:#3BA7C7"/>
	<stop  offset="0.5153" style="stop-color:#3DACC9"/>
	<stop  offset="0.5704" style="stop-color:#3BA7C7"/>
	<stop  offset="0.6593" style="stop-color:#3699C2"/>
	<stop  offset="0.7709" style="stop-color:#3282B8"/>
	<stop  offset="0.8995" style="stop-color:#3462A7"/>
	<stop  offset="0.9944" style="stop-color:#374798"/>
</linearGradient>
<path fill="url(#SVGID_10_)" d="M75.18,121.707c-3.914,0.2-7.762,0.619-10.062,0.728c-0.312,0.113-0.591,0.244-0.848,0.386
	c3.667,12.786,7.335,25.571,11.002,38.357c3.587-12.905,7.175-25.811,10.763-38.716C83.967,122.462,79.588,121.924,75.18,121.707z"
	/>
<linearGradient id="SVGID_11_" gradientUnits="userSpaceOnUse" x1="59.4897" y1="121.5942" x2="59.4897" y2="230.7558">
	<stop  offset="0.0112" style="stop-color:#3090CF"/>
	<stop  offset="0.0242" style="stop-color:#3192CE"/>
	<stop  offset="0.1673" style="stop-color:#3A9EC0"/>
	<stop  offset="0.2968" style="stop-color:#41A6B2"/>
	<stop  offset="0.4069" style="stop-color:#47ABA9"/>
	<stop  offset="0.4847" style="stop-color:#48ADA6"/>
	<stop  offset="1" style="stop-color:#3090CF"/>
</linearGradient>
<path fill="url(#SVGID_11_)" d="M75.18,121.707c-3.914,0.2-7.762,0.619-10.062,0.728c-0.312,0.113-0.591,0.244-0.848,0.386
	c-0.727,0.401-1.232,0.918-1.425,1.589c-3.128,10.904-6.256,21.809-9.383,32.713c-3.061,10.67-6.121,21.34-9.182,32.011
	c-3.779,13.173-7.557,26.346-11.335,39.519c0.448,0.454,1.099,0.805,1.905,1.07c2.277,0.75,5.766,0.829,9.302,0.677
	c3.935-0.17,7.917-0.622,10.327-0.747c0.351-0.125,0.664-0.27,0.946-0.43c0.7-0.396,1.182-0.902,1.362-1.549
	c3.031-10.905,6.062-21.809,9.094-32.713c3.13-11.26,6.261-22.521,9.391-33.781c3.587-12.905,7.175-25.811,10.763-38.716
	C81.725,121.118,76.725,121.747,75.18,121.707z"/>
<linearGradient id="SVGID_12_" gradientUnits="userSpaceOnUse" x1="133.5972" y1="120.7515" x2="103.2466" y2="228.7632">
	<stop  offset="0.0112" style="stop-color:#3090CF"/>
	<stop  offset="0.5" style="stop-color:#48ADA6"/>
	<stop  offset="1" style="stop-color:#3090CF"/>
</linearGradient>
<path fill="url(#SVGID_12_)" d="M128.506,122.37c2.486-0.18,5.986-0.53,9.464-0.68C134.375,121.528,130.811,121.602,128.506,122.37z
	"/>
<linearGradient id="SVGID_13_" gradientUnits="userSpaceOnUse" x1="77.0327" y1="122.7778" x2="106.9373" y2="230.1951">
	<stop  offset="0" style="stop-color:#374798"/>
	<stop  offset="0.0818" style="stop-color:#345CA4"/>
	<stop  offset="0.2295" style="stop-color:#327FB6"/>
	<stop  offset="0.3563" style="stop-color:#3698C1"/>
	<stop  offset="0.4557" style="stop-color:#3BA7C7"/>
	<stop  offset="0.5153" style="stop-color:#3DACC9"/>
	<stop  offset="0.5704" style="stop-color:#3BA7C7"/>
	<stop  offset="0.6593" style="stop-color:#3699C2"/>
	<stop  offset="0.7709" style="stop-color:#3282B8"/>
	<stop  offset="0.8995" style="stop-color:#3462A7"/>
	<stop  offset="0.9944" style="stop-color:#374798"/>
</linearGradient>
<path fill="url(#SVGID_13_)" d="M106.863,191.23c-3.645,12.706-7.289,25.413-10.934,38.118c0.207,0.104,0.423,0.203,0.661,0.29
	c2.252,0.09,6.174,0.524,10.181,0.732c4.377-0.22,8.71-0.75,10.764-0.75C113.978,216.824,110.42,204.027,106.863,191.23z"/>
<linearGradient id="SVGID_14_" gradientUnits="userSpaceOnUse" x1="137.6719" y1="122.7812" x2="167.672" y2="229.4478">
	<stop  offset="0" style="stop-color:#AE3D67"/>
	<stop  offset="0.5031" style="stop-color:#EA5268"/>
	<stop  offset="1" style="stop-color:#E83268"/>
</linearGradient>
<path fill="url(#SVGID_14_)" d="M147.923,122.416c-2.399-0.139-6.187-0.558-9.953-0.727c-3.478,0.15-6.979,0.5-9.464,0.68
	c-0.86,0.287-1.545,0.669-1.989,1.174c3.792,13.221,7.584,26.441,11.376,39.663c3.731-13.422,7.462-26.844,11.194-40.266
	C148.753,122.738,148.36,122.565,147.923,122.416z"/>
<linearGradient id="SVGID_15_" gradientUnits="userSpaceOnUse" x1="122.5083" y1="121.8818" x2="122.5083" y2="230.2775">
	<stop  offset="0.0112" style="stop-color:#3090CF"/>
	<stop  offset="0.5" style="stop-color:#48ADA6"/>
	<stop  offset="1" style="stop-color:#3090CF"/>
</linearGradient>
<path fill="url(#SVGID_15_)" d="M147.923,122.416c-2.376-0.812-6.147-0.891-9.953-0.727c-3.478,0.15-6.979,0.5-9.464,0.68
	c-0.86,0.287-1.545,0.669-1.989,1.174c-0.226,0.257-0.394,0.543-0.487,0.866c-3.128,10.904-6.256,21.809-9.383,32.713
	c-3.261,11.369-6.522,22.738-9.783,34.107c-3.645,12.706-7.289,25.413-10.934,38.118c0.207,0.104,0.423,0.203,0.661,0.29
	c2.394,0.878,6.305,0.927,10.181,0.732c6.121,0.317,12.422,0.102,13.201-2.698c3.031-10.905,6.062-21.809,9.094-32.713
	c2.942-10.584,5.885-21.168,8.827-31.753c3.731-13.422,7.462-26.844,11.194-40.266C148.753,122.738,148.36,122.565,147.923,122.416z
	"/>
<linearGradient id="SVGID_16_" gradientUnits="userSpaceOnUse" x1="138.377" y1="122.583" x2="168.377" y2="229.2494">
	<stop  offset="0" style="stop-color:#AE3D67"/>
	<stop  offset="0.5031" style="stop-color:#EA5268"/>
	<stop  offset="1" style="stop-color:#E83268"/>
</linearGradient>
<path fill="url(#SVGID_16_)" d="M156.989,228.669c0.448,0.454,1.099,0.805,1.906,1.07c2.428,0.172,5.863,0.518,9.305,0.677
	c3.933-0.17,7.913-0.622,10.322-0.746c0.352-0.125,0.665-0.271,0.948-0.431c-3.715-13.363-7.43-26.727-11.145-40.09
	C164.546,202.323,160.767,215.496,156.989,228.669z"/>
<linearGradient id="SVGID_17_" gradientUnits="userSpaceOnUse" x1="199.1069" y1="122.3369" x2="229.107" y2="229.0033">
	<stop  offset="0" style="stop-color:#E83268"/>
	<stop  offset="0.5031" style="stop-color:#EA5268"/>
	<stop  offset="1" style="stop-color:#E83268"/>
</linearGradient>
<path fill="url(#SVGID_17_)" d="M199.224,121.724c-3.914,0.2-7.761,0.619-10.061,0.728c-0.312,0.113-0.591,0.244-0.849,0.386
	c3.667,12.786,7.335,25.573,11.002,38.359c3.588-12.906,7.175-25.812,10.764-38.718
	C208.012,122.479,203.632,121.941,199.224,121.724z"/>
<linearGradient id="SVGID_18_" gradientUnits="userSpaceOnUse" x1="183.5347" y1="122.793" x2="183.5347" y2="230.5238">
	<stop  offset="0" style="stop-color:#EA5B67"/>
	<stop  offset="0.5" style="stop-color:#F7B73E"/>
	<stop  offset="1" style="stop-color:#EA5B67"/>
</linearGradient>
<path fill="url(#SVGID_18_)" d="M199.224,121.724c-3.835-0.12-7.685-0.134-10.061,0.728c-0.312,0.113-0.591,0.244-0.849,0.386
	c-0.726,0.401-1.232,0.918-1.424,1.589c-3.128,10.904-6.256,21.809-9.384,32.713c-3.061,10.67-6.121,21.34-9.182,32.009
	c-3.778,13.173-7.557,26.346-11.335,39.52c0.448,0.454,1.099,0.805,1.906,1.07c2.277,0.75,5.768,0.829,9.305,0.677
	c3.948,0.182,7.897,0.116,10.322-0.746c0.352-0.125,0.665-0.271,0.948-0.431c0.7-0.396,1.183-0.902,1.363-1.549
	c3.031-10.906,6.062-21.809,9.094-32.713c3.13-11.26,6.261-22.52,9.391-33.78c3.588-12.906,7.175-25.812,10.764-38.718
	C206.415,121.256,200.583,121.767,199.224,121.724z"/>
<linearGradient id="SVGID_19_" gradientUnits="userSpaceOnUse" x1="200.5825" y1="121.9219" x2="230.5826" y2="228.5884">
	<stop  offset="0" style="stop-color:#E83268"/>
	<stop  offset="0.5031" style="stop-color:#EA5268"/>
	<stop  offset="1" style="stop-color:#E83268"/>
</linearGradient>
<path fill="url(#SVGID_19_)" d="M230.908,191.249c-3.645,12.706-7.289,25.412-10.934,38.118c0.207,0.104,0.423,0.203,0.661,0.29
	c2.252,0.09,6.175,0.524,10.183,0.731c4.376-0.22,8.708-0.75,10.762-0.75C238.022,216.841,234.465,204.045,230.908,191.249z"/>
<linearGradient id="SVGID_20_" gradientUnits="userSpaceOnUse" x1="261.8438" y1="123.0273" x2="294.3437" y2="231.0273">
	<stop  offset="0" style="stop-color:#7276B7"/>
	<stop  offset="0.5" style="stop-color:#7276B7"/>
	<stop  offset="1" style="stop-color:#603F92"/>
</linearGradient>
<path fill="url(#SVGID_20_)" d="M272.639,122.465c-2.305-0.084-6.438-0.569-10.556-0.756c-3.615,0.173-7.209,0.547-9.608,0.702
	c-0.592,0.204-1.095,0.456-1.492,0.762c3.739,13.036,7.478,26.073,11.217,39.109c3.668-13.194,7.336-26.39,11.004-39.584
	C273.026,122.615,272.838,122.538,272.639,122.465z"/>
<linearGradient id="SVGID_21_" gradientUnits="userSpaceOnUse" x1="246.5884" y1="122.2217" x2="246.5884" y2="230.9179">
	<stop  offset="0" style="stop-color:#EA5B67"/>
	<stop  offset="0.4969" style="stop-color:#F7B73E"/>
	<stop  offset="1" style="stop-color:#EA5B67"/>
</linearGradient>
<path fill="url(#SVGID_21_)" d="M272.639,122.465c-2.459-0.893-6.52-0.95-10.556-0.756c-3.658-0.167-7.292-0.095-9.608,0.702
	c-0.592,0.204-1.095,0.456-1.492,0.762c-0.447,0.345-0.766,0.756-0.908,1.254c-3.127,10.904-6.256,21.809-9.383,32.713
	c-3.261,11.37-6.522,22.739-9.784,34.108c-3.645,12.706-7.289,25.412-10.934,38.118c0.207,0.104,0.423,0.203,0.661,0.29
	c2.394,0.878,6.306,0.927,10.183,0.731c6.12,0.317,12.419,0.102,13.197-2.697c3.031-10.906,6.062-21.809,9.096-32.713
	c3.029-10.898,6.059-21.796,9.088-32.695c3.668-13.194,7.336-26.39,11.004-39.584C273.026,122.615,272.838,122.538,272.639,122.465z
	"/>
<linearGradient id="SVGID_22_" gradientUnits="userSpaceOnUse" x1="261.4219" y1="123.1543" x2="293.9219" y2="231.1544">
	<stop  offset="0" style="stop-color:#7276B7"/>
	<stop  offset="0.5" style="stop-color:#7276B7"/>
	<stop  offset="1" style="stop-color:#603F92"/>
</linearGradient>
<path fill="url(#SVGID_22_)" d="M281.56,228.669c0.449,0.454,1.1,0.805,1.906,1.07c2.428,0.172,5.863,0.518,9.305,0.677
	c3.933-0.17,7.913-0.622,10.322-0.746c0.353-0.125,0.665-0.271,0.948-0.431c-3.716-13.363-7.431-26.727-11.146-40.09
	C289.117,202.323,285.339,215.496,281.56,228.669z"/>
<linearGradient id="SVGID_23_" gradientUnits="userSpaceOnUse" x1="324.0127" y1="123.5459" x2="353.512" y2="230.5431">
	<stop  offset="0" style="stop-color:#604092"/>
	<stop  offset="0.5" style="stop-color:#7276B7"/>
	<stop  offset="1" style="stop-color:#604092"/>
</linearGradient>
<path fill="url(#SVGID_23_)" d="M323.796,121.724c-3.914,0.2-7.762,0.619-10.062,0.728c-0.312,0.113-0.592,0.244-0.85,0.386
	c3.668,12.786,7.336,25.573,11.003,38.359c3.588-12.906,7.176-25.812,10.764-38.718
	C332.583,122.479,328.204,121.941,323.796,121.724z"/>
<linearGradient id="SVGID_24_" gradientUnits="userSpaceOnUse" x1="308.1055" y1="122.5449" x2="308.1055" y2="231.0325">
	<stop  offset="0" style="stop-color:#6A2383"/>
	<stop  offset="0.5" style="stop-color:#8187C2"/>
	<stop  offset="1" style="stop-color:#692481"/>
</linearGradient>
<path fill="url(#SVGID_24_)" d="M323.796,121.724c-3.836-0.076-7.685-0.134-10.062,0.728c-0.312,0.113-0.592,0.244-0.85,0.386
	c-0.726,0.401-1.231,0.918-1.424,1.589c-3.128,10.904-6.256,21.809-9.384,32.713c-3.061,10.67-6.121,21.34-9.182,32.009
	c-3.778,13.173-7.557,26.346-11.336,39.52c0.449,0.454,1.1,0.805,1.906,1.07c2.277,0.75,5.768,0.829,9.305,0.677
	c3.948,0.182,7.897,0.116,10.322-0.746c0.353-0.125,0.665-0.271,0.948-0.431c0.699-0.396,1.183-0.902,1.362-1.549
	c3.031-10.906,6.062-21.809,9.094-32.713c3.13-11.26,6.261-22.52,9.391-33.78c3.588-12.906,7.176-25.812,10.764-38.718
	C329.24,121.071,325.6,121.76,323.796,121.724z"/>
<linearGradient id="SVGID_25_" gradientUnits="userSpaceOnUse" x1="325.9863" y1="123.002" x2="355.4864" y2="230.002">
	<stop  offset="0" style="stop-color:#604092"/>
	<stop  offset="0.5" style="stop-color:#7276B7"/>
	<stop  offset="1" style="stop-color:#604092"/>
</linearGradient>
<path fill="url(#SVGID_25_)" d="M355.479,191.249c-3.645,12.706-7.289,25.412-10.934,38.118c0.206,0.104,0.423,0.203,0.66,0.29
	c2.253,0.09,6.176,0.524,10.184,0.731c4.376-0.22,8.708-0.75,10.762-0.75C362.594,216.841,359.036,204.045,355.479,191.249z"/>
<linearGradient id="SVGID_26_" gradientUnits="userSpaceOnUse" x1="371.1904" y1="122.6807" x2="371.1904" y2="231.181">
	<stop  offset="0" style="stop-color:#692481"/>
	<stop  offset="0.5" style="stop-color:#8187C1"/>
	<stop  offset="1" style="stop-color:#692481"/>
</linearGradient>
<path fill="url(#SVGID_26_)" d="M374.646,124.427c-3.127,10.904-6.256,21.809-9.383,32.713c-3.261,11.37-6.522,22.739-9.783,34.108
	c-3.645,12.706-7.289,25.412-10.934,38.118c0.206,0.104,0.423,0.203,0.66,0.29c2.395,0.878,6.307,0.927,10.184,0.731
	c6.12,0.317,12.42,0.102,13.197-2.697c3.031-10.906,6.062-21.809,9.096-32.713c6.717-24.167,13.436-48.332,20.152-72.498
	C393.069,122.479,376.024,119.618,374.646,124.427z"/>
</svg>
